<svg xmlns="http://www.w3.org/2000/svg" xmlns:xlink="http://www.w3.org/1999/xlink" width="16" height="25" viewBox="0 0 16 25">
    <defs>
        <path id="a" d="M0 0h15.496v24.468H0z"/>
    </defs>
    <g fill="none" fill-rule="evenodd">
        <mask id="b" fill="#fff">
            <use xlink:href="#a"/>
        </mask>
        <path fill="#D0021B" d="M7.748 24.468C3.476 24.468 0 21.038 0 16.822V6.117c0-.564.463-1.02 1.033-1.02.57 0 1.033.456 1.033 1.02v10.705c0 3.09 2.549 5.607 5.682 5.607 3.134 0 5.682-2.516 5.682-5.607V5.607c0-1.967-1.622-3.568-3.616-3.568s-3.616 1.6-3.616 3.568v10.195c0 .843.696 1.53 1.55 1.53a1.54 1.54 0 0 0 1.55-1.53V6.117c0-.564.463-1.02 1.033-1.02.57 0 1.033.456 1.033 1.02v9.685c0 1.968-1.622 3.569-3.616 3.569s-3.616-1.6-3.616-3.569V5.607C4.132 2.517 6.681 0 9.814 0c3.134 0 5.682 2.516 5.682 5.607v11.215c0 4.216-3.475 7.646-7.748 7.646" mask="url(#b)"/>
    </g>
</svg>
