<svg xmlns="http://www.w3.org/2000/svg" xmlns:xlink="http://www.w3.org/1999/xlink" width="18" height="25" viewBox="0 0 18 25">
    <defs>
        <path id="a" d="M0 .276h17.506V24.39H0z"/>
    </defs>
    <g fill="none" fill-rule="evenodd">
        <g>
            <mask id="b" fill="#fff">
                <use xlink:href="#a"/>
            </mask>
            <path fill="#D0021B" d="M15.626 22.68H5.38c-1.929 0-3.507-1.433-3.507-3.202V8.917a5.676 5.676 0 0 0 3.507 1.19h10.247V22.68zm.937-14.29H5.379c-1.929 0-3.507-1.434-3.507-3.202 0-1.762 1.571-3.201 3.507-3.201h11.19c.522 0 .937-.386.937-.856 0-.475-.422-.855-.936-.855H5.379c-2.964 0-5.38 2.206-5.38 4.912v14.29c0 2.707 2.416 4.912 5.38 4.912h11.19c.522 0 .937-.386.937-.855V9.245c-.007-.47-.422-.855-.943-.855z" mask="url(#b)"/>
        </g>
        <path fill="#D0021B" d="M5.62 4.605c-.53 0-.953.446-.953.987 0 .541.43.987.953.987h8.093c.531 0 .954-.446.954-.987 0-.541-.43-.987-.954-.987H5.62z"/>
    </g>
</svg>
