<svg xmlns="http://www.w3.org/2000/svg" width="24" height="25" viewBox="0 0 24 25">
    <g fill="#D0021B" fill-rule="evenodd">
        <path d="M9.934 20.57v-.003a1.153 1.153 0 0 0-.75-1.005 7.717 7.717 0 0 1-2.574-1.607 1.18 1.18 0 0 0-1.241-.237h-.004l-2.1.829c-.203-.19-.525-.573-.837-1.16-.312-.587-.45-1.067-.491-1.34l1.893-1.241c.38-.25.58-.696.507-1.142a7.464 7.464 0 0 1 .122-2.995c.109-.44-.053-.9-.412-1.18L2.26 8.1c.065-.268.24-.735.6-1.296.359-.56.71-.916.928-1.089l2.017.988.02.009c.41.2.9.147 1.257-.138a7.684 7.684 0 0 1 2.69-1.393c.438-.126.762-.495.827-.941l.326-2.22c.267-.08.765-.163 1.436-.136.026 0 .048.004.074.004.166.01.32.024.463.042.396.052.7.132.883.203l.142 2.226a1.158 1.158 0 0 0 .75 1.01 7.81 7.81 0 0 1 1.37.676c.432.27.838.583 1.206.93a1.177 1.177 0 0 0 1.245.236l2.1-.827c.13.123.315.337.512.626.107.156.215.328.325.533.312.587.448 1.067.49 1.339l-1.892 1.242c-.382.25-.58.697-.508 1.142a7.452 7.452 0 0 1-.122 2.995c-.108.44.053.9.412 1.18l.017.013h.001l1.768 1.375c-.065.268-.24.736-.598 1.295-.36.561-.713.918-.93 1.09l-2.036-.997a1.18 1.18 0 0 0-1.257.138 7.692 7.692 0 0 1-2.69 1.392c-.44.127-.763.495-.828.942l-.326 2.22c-.267.08-.764.163-1.435.137-.672-.027-1.161-.15-1.421-.25l-.143-2.226zm12.674-1.44c1.162-1.814 1.277-3.34.31-4.008l-1.406-1.093c.13-.78.162-1.569.094-2.358l1.5-.984a1.56 1.56 0 0 0 .176-.121v-.001a1.37 1.37 0 0 0 .129-.118l.027-.025c.028-.031.054-.066.08-.1.016-.022.035-.041.05-.064.023-.033.042-.07.063-.106.014-.026.031-.05.044-.076.017-.034.03-.072.045-.107.012-.032.028-.062.039-.095.01-.03.018-.064.026-.096.012-.04.025-.08.034-.123.007-.03.01-.062.015-.093.007-.048.016-.094.022-.143.002-.018 0-.037.002-.055.006-.065.01-.13.01-.197 0-.036-.003-.074-.004-.11-.002-.053-.002-.103-.006-.157-.054-.641-.3-1.4-.742-2.228a8.863 8.863 0 0 0-.283-.49l-.005-.01c-.902-1.454-1.967-2.131-2.898-1.835-.046.014-.086.03-.126.047-.016.007-.033.011-.05.02l-1.671.658a9.779 9.779 0 0 0-.96-.683l-.008-.005-.009-.005a9.941 9.941 0 0 0-1.036-.563l-.113-1.773c0-.02-.004-.038-.005-.058-.002-.041-.004-.082-.01-.127C15.814.891 14.738.232 13.02.052c-.003 0-.007 0-.01-.002a8.947 8.947 0 0 0-.556-.042h-.015c-.948-.038-1.748.067-2.357.294-.03.012-.056.025-.085.036-.056.023-.113.045-.165.07-.054.025-.103.053-.153.08l-.072.039C9.55.56 9.5.596 9.448.63l-.042.03c-.041.03-.077.063-.115.096l-.06.05C9.2.839 9.173.87 9.145.902c-.02.022-.043.044-.062.068-.024.03-.044.062-.065.093-.018.027-.04.053-.057.08-.013.024-.023.05-.037.073-.02.038-.04.075-.056.114-.006.013-.008.027-.013.04-.02.053-.039.105-.052.16l-.005.025a1.39 1.39 0 0 0-.03.185L8.51 3.497a9.641 9.641 0 0 0-2.12 1.095l-1.603-.784c-1.026-.576-2.373.18-3.535 1.994C.092 7.61-.024 9.135.937 9.806l1.41 1.096a9.372 9.372 0 0 0-.093 2.359l-.348.228-.984.645-.165.109c-.371.219-.88.746-.73 1.93-.01.054-.01.087.005.09l.002.003c.092.602.344 1.31.708 1.992.504.948 1.075 1.638 1.655 2.03.055.037.11.068.165.1.018.01.034.023.052.032.508.278 1.017.324 1.486.11l1.676-.66c.305.246.626.473.96.682l.009.005.009.005c.333.209.679.397 1.034.563l.114 1.779c.006.508.266.943.739 1.277.015.012.034.021.05.033.053.035.106.07.164.104.607.349 1.483.563 2.567.605.78.032 1.537-.047 2.127-.223l.004.001c.009.012.04-.003.084-.033 1.149-.375 1.414-1.054 1.455-1.48l.028-.193.19-1.295.04-.266a9.656 9.656 0 0 0 2.119-1.095l1.607.788c1.027.569 2.372-.188 3.532-1.998z"/>
        <path d="M9.895 11.196c.71-1.11 2.2-1.442 3.327-.748a2.372 2.372 0 0 1 .742 3.287c-.71 1.11-2.2 1.442-3.328.748a2.373 2.373 0 0 1-.74-3.287m4.342-2.31l-.01-.007c-.004 0-.007-.004-.01-.006-2.004-1.25-4.665-.659-5.932 1.319-1.267 1.977-.668 4.603 1.336 5.853.003.003.007.004.01.006l.01.007c2.003 1.25 4.664.659 5.931-1.319 1.267-1.977.668-4.603-1.335-5.854"/>
    </g>
</svg>
