<svg xmlns="http://www.w3.org/2000/svg" xmlns:xlink="http://www.w3.org/1999/xlink" width="24" height="24" viewBox="0 0 24 24">
    <defs>
        <path id="a" d="M0 0h23.927v23.927H0z"/>
    </defs>
    <g fill="none" fill-rule="evenodd">
        <mask id="b" fill="#fff">
            <use xlink:href="#a"/>
        </mask>
        <path fill="#D0021B" d="M11.964 21.684c-5.36 0-9.72-4.36-9.72-9.72s4.36-9.72 9.72-9.72 9.72 4.36 9.72 9.72-4.36 9.72-9.72 9.72m0-21.684C5.367 0 0 5.367 0 11.964s5.367 11.964 11.964 11.964c6.596 0 11.963-5.367 11.963-11.964S18.56 0 11.964 0m0 10.468c-.826 0-1.496.67-1.496 1.496v4.486a1.496 1.496 0 0 0 2.991 0v-4.486c0-.826-.67-1.496-1.495-1.496m0-4.486a1.496 1.496 0 1 0 0 2.992 1.496 1.496 0 0 0 0-2.992" mask="url(#b)"/>
    </g>
</svg>
